<?xml version="1.0" encoding="UTF-8" standalone="no"?>
<!-- Generator: Adobe Illustrator 19.0.0, SVG Export Plug-In . SVG Version: 6.00 Build 0)  -->

<svg
   xmlns:dc="http://purl.org/dc/elements/1.1/"
   xmlns:cc="http://creativecommons.org/ns#"
   xmlns:rdf="http://www.w3.org/1999/02/22-rdf-syntax-ns#"
   xmlns:svg="http://www.w3.org/2000/svg"
   xmlns="http://www.w3.org/2000/svg"
   xmlns:sodipodi="http://sodipodi.sourceforge.net/DTD/sodipodi-0.dtd"
   xmlns:inkscape="http://www.inkscape.org/namespaces/inkscape"
   version="1.1"
   id="Layer_1"
   x="0px"
   y="0px"
   viewBox="0 0 512.001 512.001"
   style="enable-background:new 0 0 512.001 512.001;"
   xml:space="preserve"
   inkscape:version="0.91 r13725"
   sodipodi:docname="bus.svg"><metadata
     id="metadata3411"><rdf:RDF><cc:Work
         rdf:about=""><dc:format>image/svg+xml</dc:format><dc:type
           rdf:resource="http://purl.org/dc/dcmitype/StillImage" /><dc:title></dc:title></cc:Work></rdf:RDF></metadata><defs
     id="defs3409" /><sodipodi:namedview
     pagecolor="#ffffff"
     bordercolor="#666666"
     borderopacity="1"
     objecttolerance="10"
     gridtolerance="10"
     guidetolerance="10"
     inkscape:pageopacity="0"
     inkscape:pageshadow="2"
     inkscape:window-width="1366"
     inkscape:window-height="705"
     id="namedview3407"
     showgrid="false"
     inkscape:zoom="0.46093662"
     inkscape:cx="256.00049"
     inkscape:cy="256.00049"
     inkscape:window-x="-8"
     inkscape:window-y="-8"
     inkscape:window-maximized="1"
     inkscape:current-layer="Layer_1" /><g
     id="g3347"
     transform="translate(2.3389913,80.440836)"><path
       style="fill:#85c14e"
       d="M 506.606,170.619 429.894,86.236 c -3.928,-4.317 -9.498,-6.788 -15.342,-6.788 l -396.526,0 C 8.068,79.448 0,87.516 0,97.474 l 0,264.095 c 0,9.949 8.068,18.017 18.026,18.017 l 26.112,0 c 0,-29.246 23.711,-52.966 52.966,-52.966 29.255,0 52.966,23.72 52.966,52.966 l 211.862,0 c 0,-29.246 23.711,-52.966 52.966,-52.966 29.255,0 52.966,23.72 52.966,52.966 l 26.112,0 c 9.957,0 18.026,-8.068 18.026,-18.017 l 0,-176.993 c -0.002,-5.165 -1.926,-10.143 -5.396,-13.957"
       id="path3349"
       inkscape:connector-curvature="0" /><g
       id="g3351"><path
         style="fill:#e6e6e6"
         d="m 394.759,220.691 117.239,0 0,-36.122 c 0,-5.155 -1.924,-10.134 -5.394,-13.948 l -50.776,-55.861 -61.069,0 c -3.505,0 -6.347,2.842 -6.347,6.347 l 0,93.237 c 0,3.504 2.843,6.347 6.347,6.347"
         id="path3353"
         inkscape:connector-curvature="0" /><path
         style="fill:#e6e6e6"
         d="m 0.001,114.76 0,105.931 68.961,0 c 5.791,0 10.487,-4.696 10.487,-10.487 l 0,-84.957 c 0,-5.791 -4.696,-10.487 -10.487,-10.487 l -68.961,0 z"
         id="path3355"
         inkscape:connector-curvature="0" /><path
         style="fill:#e6e6e6"
         d="m 256.001,127.172 0,81.108 c 0,6.85 5.561,12.412 12.412,12.412 l 63.453,0 c 6.85,0 12.412,-5.561 12.412,-12.412 l 0,-81.108 c 0,-6.859 -5.561,-12.412 -12.412,-12.412 l -63.453,0 c -6.851,10e-4 -12.412,5.553 -12.412,12.412"
         id="path3357"
         inkscape:connector-curvature="0" /><path
         style="fill:#e6e6e6"
         d="m 123.587,127.172 0,81.108 c 0,6.85 5.561,12.412 12.412,12.412 l 63.453,0 c 6.85,0 12.412,-5.561 12.412,-12.412 l 0,-81.108 c 0,-6.859 -5.561,-12.412 -12.412,-12.412 l -63.453,0 c -6.851,10e-4 -12.412,5.553 -12.412,12.412"
         id="path3359"
         inkscape:connector-curvature="0" /></g><path
       style="fill:#5b5b5b"
       d="m 467.863,379.588 c 0,29.255 -23.711,52.966 -52.966,52.966 -29.255,0 -52.966,-23.711 -52.966,-52.966 0,-29.255 23.711,-52.966 52.966,-52.966 29.255,0 52.966,23.711 52.966,52.966"
       id="path3361"
       inkscape:connector-curvature="0" /><path
       style="fill:#b2b2b2"
       d="m 432.553,379.588 c 0,9.754 -7.901,17.655 -17.655,17.655 -9.754,0 -17.655,-7.901 -17.655,-17.655 0,-9.754 7.901,-17.655 17.655,-17.655 9.754,0 17.655,7.9 17.655,17.655"
       id="path3363"
       inkscape:connector-curvature="0" /><path
       style="fill:#5b5b5b"
       d="m 150.07,379.588 c 0,29.255 -23.711,52.966 -52.966,52.966 -29.255,0 -52.966,-23.711 -52.966,-52.966 0,-29.255 23.711,-52.966 52.966,-52.966 29.255,0 52.966,23.711 52.966,52.966"
       id="path3365"
       inkscape:connector-curvature="0" /><path
       style="fill:#b2b2b2"
       d="m 114.76,379.588 c 0,9.754 -7.901,17.655 -17.655,17.655 -9.754,0 -17.655,-7.901 -17.655,-17.655 0,-9.754 7.901,-17.655 17.655,-17.655 9.754,0 17.655,7.9 17.655,17.655"
       id="path3367"
       inkscape:connector-curvature="0" /><g
       id="g3369"><path
         style="fill:#6aa62c"
         d="m 512.001,273.656 -52.965,0 c -4.882,0 -8.828,3.946 -8.828,8.828 0,4.882 3.946,8.828 8.828,8.828 l 52.965,0 0,-17.656 z"
         id="path3371"
         inkscape:connector-curvature="0" /><path
         style="fill:#6aa62c"
         d="m 282.484,247.174 -282.483,0 0,17.655 282.483,0 c 4.873,0 8.828,-3.946 8.828,-8.828 -0.001,-4.881 -3.956,-8.827 -8.828,-8.827"
         id="path3373"
         inkscape:connector-curvature="0" /><path
         style="fill:#6aa62c"
         d="m 317.794,282.484 -317.793,0 0,17.655 317.793,0 c 4.873,0 8.828,-3.946 8.828,-8.828 0,-4.882 -3.955,-8.827 -8.828,-8.827"
         id="path3375"
         inkscape:connector-curvature="0" /></g></g><g
     id="g3377" /><g
     id="g3379" /><g
     id="g3381" /><g
     id="g3383" /><g
     id="g3385" /><g
     id="g3387" /><g
     id="g3389" /><g
     id="g3391" /><g
     id="g3393" /><g
     id="g3395" /><g
     id="g3397" /><g
     id="g3399" /><g
     id="g3401" /><g
     id="g3403" /><g
     id="g3405" /></svg>